<svg width="28" height="28" viewBox="0 0 28 28" fill="none" xmlns="http://www.w3.org/2000/svg">
<path d="M14 0C6.26795 0 0 6.26795 0 14C0 21.7321 6.26795 28 14 28C21.732 28 28 21.7321 28 14C28 6.26795 21.7357 0 14 0ZM21.4116 11.2138C21.4188 11.3704 21.4225 11.5234 21.4225 11.68C21.4225 16.4329 17.8059 21.9142 11.1883 21.9142C9.15609 21.9142 7.26587 21.3169 5.6743 20.2971C5.95473 20.3299 6.24246 20.3481 6.53018 20.3481C8.21644 20.3481 9.76795 19.7726 10.999 18.8075C9.4256 18.7784 8.09625 17.7367 7.63736 16.3091C7.85588 16.3528 8.08169 16.3746 8.31478 16.3746C8.64256 16.3746 8.95942 16.3309 9.26171 16.2471C7.6155 15.9157 6.37721 14.4625 6.37721 12.718V12.6743C6.8616 12.9438 7.41883 13.1077 8.0052 13.1259C7.04006 12.4813 6.40635 11.3777 6.40635 10.1322C6.40635 9.47294 6.58481 8.8538 6.89438 8.32206C8.66805 10.5 11.3195 11.9313 14.3096 12.0806C14.2477 11.8184 14.2149 11.5453 14.2149 11.2612C14.2149 9.27627 15.8247 7.66285 17.8132 7.66285C18.8476 7.66285 19.7836 8.0999 20.4391 8.79917C21.2586 8.63892 22.0271 8.33663 22.7227 7.92508C22.4532 8.76639 21.885 9.4693 21.142 9.91363C21.8704 9.82622 22.5624 9.63319 23.2071 9.34547C22.7227 10.0739 22.1145 10.7076 21.4116 11.2138Z" fill="#333333"/>
</svg>
