<svg width="28" height="28" viewBox="0 0 28 28" fill="none" xmlns="http://www.w3.org/2000/svg">
<path d="M14 0C6.26795 0 0 6.26795 0 14C0 21.732 6.26795 28 14 28C21.732 28 28 21.732 28 14C28 6.26795 21.7357 0 14 0ZM14.5026 22.5916C12.026 22.5916 10.2159 21.4917 10.2159 21.4917L5.34287 23.0505L6.89802 18.3122C6.89802 18.3122 5.60874 16.1342 5.60874 13.6941C5.60874 8.78096 9.58949 4.80021 14.5026 4.80021C19.4157 4.80021 23.3965 8.78096 23.3965 13.6941C23.3965 18.6072 19.4157 22.5916 14.5026 22.5916Z" fill="#333333"/>
<path d="M14.5028 6.22415C10.3764 6.22415 7.02934 9.57119 7.02934 13.6976C7.02934 16.1159 8.48616 18.13 8.48616 18.13L7.57565 20.8506L10.3837 19.9328C10.3837 19.9328 12.2156 21.1674 14.5028 21.1674C18.6292 21.1674 21.9763 17.8204 21.9763 13.694C21.9763 9.56755 18.6292 6.22415 14.5028 6.22415ZM18.6693 17.1685C18.1412 17.7403 17.0195 18.0025 16.4841 17.8532C15.9523 17.7039 14.1932 17.245 13.046 16.1742C11.8987 15.1034 10.97 13.9781 10.5913 13.1477C10.2125 12.3173 10.2307 11.8256 10.2525 11.5925C10.2744 11.3594 10.3946 10.285 11.1157 9.82249C11.1157 9.82249 11.3561 9.66953 11.4799 9.66953C11.6037 9.66953 12.1792 9.66953 12.1792 9.66953C12.1792 9.66953 12.3686 9.7023 12.4523 9.89897C12.5397 10.0956 13.1298 11.4833 13.1735 11.5889C13.2172 11.6945 13.3337 11.9604 13.148 12.1971C12.9622 12.4338 12.5798 12.8782 12.5798 12.8782C12.5798 12.8782 12.4268 13.0166 12.558 13.2351C12.6891 13.4536 13.1553 14.1747 13.7598 14.7174C14.3681 15.2601 15.111 15.6607 15.4825 15.7845C15.854 15.9047 15.9341 15.7444 16.0762 15.5623C16.2182 15.3802 16.6589 14.8194 16.6589 14.8194C16.6589 14.8194 16.8119 14.5972 17.1105 14.732C17.4092 14.8704 18.866 15.5733 18.866 15.5733C18.866 15.5733 19.0444 15.6024 19.0554 15.8027C19.0736 16.003 19.1974 16.5967 18.6693 17.1685Z" fill="#333333"/>
</svg>
