<svg viewBox="0 0 114 104" fill="none" xmlns="http://www.w3.org/2000/svg">
<path d="M55.7 96.7C55 97 54.5 97.2 53.9 97.2C52.4 97.2 51.7 96.2 51.7 94.6C51.7 93.1 52.4 92.1 54 92.1C54.7 92.1 55.2 92.3 55.6 92.5L55.2 93.2C54.9 93 54.5 92.9 54 92.9C53.1 92.9 52.7 93.6 52.7 94.5C52.7 95.7 53.1 96.3 54 96.3C54.3 96.3 54.6 96.2 54.9 96.1V95.2H54.2L54.1 94.5H55.7V96.7Z" fill="#2B3701"/>
<path d="M59.7 95.3C59.7 96.5 59.1 97.2 58 97.2C56.9 97.2 56.3 96.6 56.3 95.3C56.3 94.3 56.9 93.5 58 93.5C59.1 93.4 59.7 94.2 59.7 95.3ZM58.7 95.3C58.7 94.4 58.4 94.1 58 94.1C57.6 94.1 57.3 94.4 57.3 95.3C57.3 96.1 57.5 96.5 58 96.5C58.5 96.4 58.7 96.1 58.7 95.3Z" fill="#2B3701"/>
<path d="M61.3 93.9C61.5 93.7 61.8 93.5 62.2 93.5C63 93.5 63.6 94.1 63.6 95.3C63.6 96.5 62.9 97.2 62 97.2C61.5 97.2 61.2 97 61 96.7L60.8 97.1H60.3V92.1H61.3V93.3V93.9ZM61.3 96.1C61.4 96.3 61.7 96.5 61.9 96.5C62.3 96.5 62.6 96.2 62.6 95.3C62.6 94.4 62.3 94.2 61.9 94.2C61.7 94.2 61.4 94.3 61.2 94.5V96.1H61.3Z" fill="#2B3701"/>
<path d="M64.7 97.1V94.2L64.3 94.1V93.5H65.7V97.1H64.7ZM64.6 92H65.6V92.9H64.6V92Z" fill="#2B3701"/>
<path d="M67.3 95.5C67.3 96.1 67.6 96.4 68.2 96.4C68.6 96.4 68.9 96.2 69.2 96.1L69.4 96.8C69.1 97 68.6 97.2 68.1 97.2C67 97.2 66.3 96.5 66.3 95.3C66.3 94.2 66.8 93.5 68 93.5C69.1 93.5 69.5 94.3 69.5 95.2V95.6H67.3V95.5ZM67.9 94.1C67.4 94.1 67.2 94.5 67.2 95H68.5C68.6 94.5 68.4 94.1 67.9 94.1Z" fill="#2B3701"/>
<path d="M72.2 94.3C72.1 94.3 71.9 94.2 71.8 94.2C71.5 94.2 71.3 94.3 71.2 94.4V97H70.3V93.4H71C71 93.6 71.1 93.7 71.1 93.9C71.2 93.6 71.5 93.4 71.9 93.4C72.1 93.4 72.2 93.4 72.3 93.5C72.3 93.8 72.3 94 72.2 94.3Z" fill="#2B3701"/>
<path d="M75 97.1V95C75 94.5 74.8 94.2 74.4 94.2C74.2 94.2 73.9 94.3 73.8 94.4V97.1H72.8V93.5H73.5L73.6 93.9C73.8 93.7 74.2 93.4 74.7 93.4C75.6 93.4 76 93.9 76 94.8V97H75V97.1Z" fill="#2B3701"/>
<path d="M80 95.3C80 96.5 79.4 97.2 78.3 97.2C77.2 97.2 76.6 96.6 76.6 95.3C76.6 94.3 77.2 93.5 78.3 93.5C79.4 93.4 80 94.2 80 95.3ZM79 95.3C79 94.4 78.7 94.1 78.3 94.1C77.9 94.1 77.6 94.4 77.6 95.3C77.6 96.1 77.8 96.5 78.3 96.5C78.8 96.4 79 96.1 79 95.3Z" fill="#2B3701"/>
<path d="M84.6 93.8C84.5 93.6 84.5 93.4 84.5 93.1V92H85.4V97H84.6L84.5 96.6C84.4 96.8 84 97.1 83.6 97.1C82.8 97.1 82.1 96.5 82.1 95.2C82.1 94 82.8 93.3 83.6 93.3C84.1 93.4 84.4 93.6 84.6 93.8ZM84.5 94.3C84.4 94.2 84.1 94.1 83.9 94.1C83.5 94.1 83.2 94.4 83.2 95.2C83.2 96.1 83.5 96.4 83.9 96.4C84.1 96.4 84.4 96.3 84.6 96.1V94.3H84.5Z" fill="#2B3701"/>
<path d="M87.1 95.5C87.1 96.1 87.4 96.4 88 96.4C88.4 96.4 88.7 96.2 89 96.1L89.2 96.8C88.9 97 88.4 97.2 87.9 97.2C86.8 97.2 86.1 96.5 86.1 95.3C86.1 94.2 86.6 93.5 87.8 93.5C88.9 93.5 89.3 94.3 89.3 95.2V95.6H87.1V95.5ZM87.8 94.1C87.3 94.1 87.1 94.5 87.1 95H88.4C88.4 94.5 88.3 94.1 87.8 94.1Z" fill="#2B3701"/>
<path d="M93.7 97.1C92.3 97.1 91.6 96.2 91.6 94.5C91.6 93 92.3 92 93.7 92C94.4 92 95 92.1 95.4 92.4L95 93.2C94.7 93 94.3 92.9 93.8 92.9C93 92.9 92.6 93.5 92.6 94.6C92.6 95.7 93 96.3 93.8 96.3C94.3 96.3 94.8 96.1 95.1 95.8L95.4 96.6C94.9 96.9 94.3 97.1 93.7 97.1Z" fill="#2B3701"/>
<path d="M96 97.1V92.1H97V93.4C97 93.6 96.9 93.9 96.9 94C97.1 93.8 97.4 93.5 97.9 93.5C98.9 93.5 99.2 94 99.2 94.9V97.1H98.2V95C98.2 94.9 98.2 94.8 98.1 94.8C98.1 94.4 97.9 94.2 97.5 94.2C97.3 94.2 97 94.3 96.9 94.4V97.1H96Z" fill="#2B3701"/>
<path d="M100.3 97.1V94.2L99.9 94.1V93.5H101.3V97.1H100.3ZM100.2 92H101.2V92.9H100.2V92Z" fill="#2B3701"/>
<path d="M102.1 96.1V92H103V96C103 96.3 103.2 96.3 103.6 96.3V97C103.6 97 103.3 97.1 103.1 97.1C102.3 97.1 102.1 96.7 102.1 96.1Z" fill="#2B3701"/>
<path d="M105 95.5C105 96.1 105.3 96.4 105.9 96.4C106.3 96.4 106.6 96.2 106.9 96.1L107.1 96.8C106.8 97 106.3 97.2 105.8 97.2C104.7 97.2 104 96.5 104 95.3C104 94.2 104.5 93.5 105.7 93.5C106.8 93.5 107.2 94.3 107.2 95.2V95.6H105V95.5ZM105.7 94.1C105.2 94.1 105 94.5 105 95H106.3C106.3 94.5 106.2 94.1 105.7 94.1Z" fill="#2B3701"/>
<path d="M112.2 0H1.8H0V1.8V102.2V104H1.8H112.2H114V102.2V1.8V0H112.2ZM1.8 1.8H46.2V102.2H1.8V1.8ZM112.2 102.2H47.9V1.8H112.2V102.2Z" fill="#2B3701"/>
<path d="M25.3 15.5C25.4 15.4 25.6 15.2 25.4 14.9C25.3 14.7 25.1 14.7 25.2 14.7C26.3 14.4 26.9 12.8 26.9 12.1C27.5 12.6 28.8 12.8 29.7 12C30.3 11.4 30.6 9.89999 29.6 9.09999C29.1 8.69999 28.1 8.69999 27.5 9.09999C27.3 8.79999 27 8.59999 26.6 8.59999C26.6 8.49999 26.6 7.69999 26.2 7.29999C25.6 6.69999 24 6.59999 23.5 7.29999C22.4 6.99999 20.9 7.49999 21 9.29999C20.2 8.99999 19.8 8.99999 19.3 9.09999C18.9 9.09999 18.4 9.49999 18.2 9.69999C18.1 9.79999 18 9.99999 18 10.1C17.9 10.4 17.8 10.7 17.8 11.1C17.9 11.7 18.2 12.3 18.6 12.5C19.2 12.8 20 12.8 20.3 12.8C20.5 12.8 20.8 12.7 21 12.4C21.1 12.3 21.1 12.2 21.2 12.2C21.2 12.4 21.1 13.2 22.1 13.6V13.7C22.4 14.9 23.2 14.7 23.2 14.8C22.8 15 23 15.3 23.1 15.5C23.6 15.3 24 15.3 24.2 15.3C24.4 15.3 24.8 15.4 25.3 15.5Z" fill="#2B3701"/>
<path d="M28 19.1C28 17.9 28.8 17 28.8 17C28.9 16.9 28.9 16.8 28.9 16.7C28.9 16.6 28.8 16.5 28.8 16.5C28.6 16.3 28.1 16 28.1 16C28 16 28 16 27.9 16.1C27.8 16.2 27.5 16.4 27 16.4C26.9 16.4 26.8 16.4 26.7 16.4C26.5 16.4 26.1 16.2 26.1 16.2C26 16.1 25.8 16.1 25.7 16C25 15.7 24.5 15.7 24.3 15.7C24.1 15.7 23.6 15.7 22.9 16C22.9 16 22.8 16 22.7 16.1L22.3 16.3C22.2 16.4 22 16.4 21.9 16.4C21.8 16.4 21.7 16.4 21.6 16.4C21.1 16.4 20.9 16.2 20.7 16.1C20.6 16 20.6 16 20.5 16C20.5 16 20 16.3 19.8 16.5C19.8 16.5 19.7 16.6 19.7 16.7C19.7 16.8 19.7 16.9 19.8 17C19.8 17 20.6 17.9 20.6 19.1C20.6 19.2 20.7 20 20.1 21C20.1 21.1 19.4 22.3 20.1 23.4C20.1 23.4 20.7 24.4 22.3 24.4C22.4 24.4 23.6 24.4 24 25.2C24 25.2 24.2 25.5 24.3 25.7L24.4 25.9L24.5 25.7C24.6 25.6 24.8 25.3 24.8 25.2C25.2 24.5 26.4 24.4 26.5 24.4C28.1 24.4 28.6 23.4 28.6 23.4C29.4 22.3 28.6 21 28.6 21C27.9 20 28 19.3 28 19.1ZM27.4 19.1L25.3 20.6L26.1 22.9L24.1 21.4L22.1 22.9L22.9 20.6L20.8 19.1H23.4L24.1 16.7L24.8 19.1H27.4Z" fill="#2B3701"/>
<path d="M28.5 15.9L28.6 16C28.6 15.9 28.5 15.9 28.5 15.9Z" fill="#2B3701"/>
<path d="M29.3 16.5C29.2 16.4 29.1 16.4 29 16.3C29.1 16.3 29.2 16.4 29.3 16.5Z" fill="#2B3701"/>
<path d="M28.7 16C28.8 16.1 28.9 16.1 28.9 16.2C28.9 16.2 28.8 16.1 28.7 16Z" fill="#2B3701"/>
<path d="M41.9 28.9C41.6 28.6 41 28.7 41 28.7C41.4 27.6 40.4 27.3 40.4 27.3C40 27.2 39.8 27.3 39.6 27.4C39.6 27.4 39.5 27.4 39.5 27.5C39.4 27.6 39.4 27.7 39.4 27.9C39.4 28.2 39.6 28.4 39.9 28.4C40 28.4 40.1 28.4 40.2 28.3C40.3 28.2 40.4 28.1 40.4 28C40.5 28.1 40.6 28.2 40.6 28.2C40.9 29.1 39.8 29.5 39.8 29.5C37.4 30.2 36 29 36 29L36.4 28.8C36.5 28.7 36.7 28.7 36.8 28.7C36.8 28.7 36.8 28.7 36.8 28.8C36.8 29.1 37 29.3 37.3 29.3C37.6 29.3 37.8 29.1 37.8 28.8C37.8 28.6 37.7 28.5 37.7 28.5C37.4 28.1 36.5 28.4 36.5 28.4C36.8 27.6 36.5 27.1 36.5 27.1C36 26.2 35 26.5 35 26.5C34.6 26.6 34.6 26.9 34.6 26.9C34.5 27.6 35 27.7 35 27.7C35.4 27.7 35.4 27.4 35.4 27.4C35.5 27 35 27 35 27C35.4 26.3 36.6 27.4 35.8 28.4C35.7 28.5 35.6 28.4 35.6 28.4C34.2 27.7 33.4 27.2 33.1 26.9C33.1 26.5 32.7 26.3 32.8 26.2C32.9 26.2 33.1 26.3 33.2 26.1C33.2 26 33.3 25.4 33.4 25C34.7 25.6 35.8 25.4 36 25.3C36.1 25.3 36.2 25.2 36.2 25C36.2 24.5 35 21.6 34.9 20.6C35.5 20.9 35.9 20 36 19.7C36.8 20.1 37.1 27.5 37.7 27.8C38 27.9 38.1 27.4 38.2 27.3C39.2 24 39.2 20.7 39.2 19.7C39.1 18 39 16.5 38.6 15.1C38.3 14.2 37.9 12.5 36.7 12.2C36.2 12.1 35.8 12.6 35.8 13C35.8 13.4 36.1 13.6 36 14C35.9 14.2 35.7 14.5 35.6 14.8C35.5 15.1 35.8 15.2 35.7 15.5C35.3 15.4 35.2 15.8 34.6 15.6C35 15.4 35 14.4 34.5 14.2C34.4 14.2 34.4 14.2 34.3 14.1C34.3 14.1 34.4 13.9 34.5 13.8C34.8 13.3 34.8 12.8 34.6 12.4C34.8 12.4 35 12.1 35 11.8C35 11.7 35 11.5 35.1 11.3C35.1 11.2 35.1 11.1 35 11.1C34.9 11.1 34.9 11.1 34.8 11.2C34.7 11.4 34.4 11.3 34.5 11.1C34.5 11 34.5 10.9 34.4 10.9C34.3 10.9 34.3 10.9 34.2 11C34.1 11.2 33.8 11.1 33.9 10.9C33.9 10.8 33.9 10.7 33.8 10.7C33.7 10.7 33.7 10.7 33.6 10.8C33.5 11 33.2 10.9 33.3 10.7C33.3 10.6 33.3 10.5 33.2 10.5C33.1 10.5 33.1 10.5 33 10.6C32.9 10.8 32.8 10.9 32.7 11C32.4 11 32.5 11.3 32.5 11.5C32 11.4 31.7 11.8 31.7 12.1H31.6C31.2 12.1 30.8 12.3 30.9 12.7C30.9 12.9 31.2 13.2 31.2 13.2C31.2 13.2 31.2 13 31.4 13C31.6 13 31.9 13.1 31.9 13.3C31.9 13.5 31.8 14 32.4 14.1C32.4 14.1 32.4 14.2 32.4 14.3C32.2 14.3 32.1 14.3 31.9 14.3C31.5 14.4 30.9 14.6 30.8 15C30.8 15.1 30.8 15.2 30.8 15.3C30.8 15.4 30.9 15.5 30.9 15.6C30.9 15.6 30.8 15.7 30.8 15.8C30.6 16 30.3 16.1 30 16.2C29.7 16.2 29.4 16 29.3 15.9C28.9 15.4 29.4 14.4 29.4 14.1C29.4 13.2 28.2 13.7 27.7 14C27.1 14.3 26.7 14.8 26.3 15.2C26.1 15.5 25.9 15.8 25.8 16L25.7 16.1C25.9 16.2 26.4 16.4 26.7 16.4C26.7 16.4 27.3 16.5 27.8 16.1C27.8 16.1 27.9 16 28 16C28.1 16 28.1 16 28.2 16.1L28.3 16.2L28.4 16.3C28.4 16.3 28.5 16.3 28.5 16.4C28.6 16.5 28.7 16.5 28.7 16.6C28.8 16.7 28.9 16.7 29 16.8C29.1 16.9 29.2 16.9 29.2 17C29.2 17 29.2 17 29.2 17.1V17.2C29.2 17.2 29.1 17.3 29.1 17.4C28.9 17.6 28.7 18 28.5 18.5C28.7 18.9 29.1 19.3 29.6 19.3C30 19.3 30.2 19.1 30.3 18.8C30.4 18.8 30.6 20 30.9 20.4C30.6 20.5 30.2 21 30.4 22.2C30.2 22 29.7 21.7 29.5 21.5C29.4 21.2 29.1 20.6 28.4 20.6C28.5 20.9 28.6 21.3 28.9 21.7C28.9 21.7 29.3 22.5 29.2 23.4C29.5 23.1 29.4 22.3 29.4 22.3H29.5C29.6 22.3 29.9 22.9 30.4 23C31.1 24.1 31.8 24.9 32.5 25.3C32.5 25.6 32.5 26.2 32.3 26.2C31.7 26.3 31.2 25.9 30.7 26H30.6C28.4 25 25.6 27.2 25.1 27.6C25.3 27.3 25 27 25 27C24.8 26.8 24.6 26.7 24.4 26.7C24.2 26.7 24 26.8 23.8 27C23.8 27 23.5 27.3 23.3 27.1C22.9 26.7 20.3 24.7 18.2 25.4C18.2 25.3 17.9 25.2 17.8 25.2C17.6 25.2 17.5 25 17.4 25C17.2 24.9 16.8 25 16.5 24.9C16.4 24.9 16.3 24.8 16.2 24.8C15.9 24.6 15.5 24.3 15.3 24L15.2 23.8C15.1 23.7 15 23.6 15 23.4C14.9 23 15.1 22.5 15.1 22.1C15.1 21.8 15.1 21.8 15.2 21.4C16.5 20.9 17.1 19.9 17.4 19.4L17.5 19.2C17.6 19.2 17.6 19.2 17.7 19.2C18.2 19.2 18.6 18.9 19.2 19C19.2 19 19.3 19.3 19.7 19.4C19.7 19.8 19.7 20.1 19.9 20.4C19.9 20.5 20 20.5 20 20.5C20.3 19.9 20.3 19.4 20.3 19.1V19C20.2 18.3 19.9 18.2 19.6 18C19.5 17.9 19.3 17.9 19.2 17.8C19 17.7 18.8 17.5 18.6 17.2C18.6 17.2 18.7 17.1 18.7 17C19.1 16.6 19.3 16 19.4 15.4C19.7 15 20.5 15.2 20.8 15.2C20.9 15.2 21 15.2 21.1 15.3C21.2 15.4 21.2 15.5 21.3 15.5C21.4 15.6 21.6 15.5 21.7 15.5C21.8 15.6 21.8 15.7 21.8 15.7C21.8 15.7 21.8 15.8 21.9 15.9C22.3 15.9 22.8 15.7 23 15.6C23 15.6 23 15.6 22.9 15.6C22.7 15.4 22.5 15.2 22.2 15.1C21.9 15.1 21.8 14.8 21.6 14.7C21.5 14.7 21.3 14.6 21.2 14.7C20.6 14.8 20.1 14.5 19.5 14.5C18.9 14.5 18.9 14.8 18.7 15.2C18.6 15.3 18.5 15.5 18.4 15.5C18.2 15.6 18.1 15.7 17.9 15.8L17.8 15.6C17.7 15.4 17.7 15.2 17.6 15C17.3 14.5 17 14.2 16.3 14C16 14 15.9 14 15.9 13.9C15.8 13.8 15.9 13.7 15.9 13.7C16.1 13.6 16.4 13.6 16.6 13.5C17.1 13.3 16.9 12.8 16.7 12.8C16.4 12.7 15.9 12.6 15.8 12.6C15.7 12.5 15.4 12.1 15.2 12C15 11.9 15 11.6 14.8 11.5C14.7 11.5 14.6 11.5 14.4 11.6C14.4 11.5 14.3 11.1 14.1 10.9C14.1 10.8 14 11 14 11.1C14 11.2 14.3 11.3 14.3 11.7L14.2 11.8C14.2 11.6 14.1 11.4 13.9 11.3C13.7 11.2 13.7 11.4 13.7 11.5C13.7 11.6 13.9 11.7 14 12.1C13.9 12.1 13.9 12.2 13.8 12.2C13.4 12.1 13.3 11.9 13.3 11.8C13.2 11.8 13 11.8 13.1 12C13.2 12.2 13.5 12.3 13.6 12.3L13.5 12.4C13.1 12.3 13 12 12.9 12C12.8 12 12.6 12 12.7 12.2C12.8 12.5 13.3 12.6 13.3 12.6C13.2 12.7 13.2 12.8 13.2 12.9C12.9 12.9 12.3 13 12.4 13.4C12.5 13.5 12.9 13.2 13.2 13.3C13.4 13.7 13.8 13.7 13.9 13.7C14 13.8 14.1 14 14.1 14.2C14.2 14.5 14.4 14.8 14.6 15C14.8 15.3 15 15.6 15.2 15.9C15.2 16 15.2 16 15.2 16.2C15 16.6 14.2 17 14 17.3C13.7 17.6 10.9 19.7 10.6 20.6C10.5 20.8 10.5 21.1 10.5 21.4C10.3 21.5 10 21.6 9.80002 21.5C9.60002 21.2 10 21 9.90002 20.7C9.90002 20.6 9.70002 20.5 9.60002 20.6C9.00002 21.1 9.40002 22 9.80002 22.2C10.3 22.4 10.4 21.9 10.7 22.1C10.8 22.2 11.7 22.9 11.5 23.6C11.5 23.6 11.5 23.7 11.4 23.7C11.2 23.9 10.9 24.1 10.7 24.4C10.2 24.7 11.1 26.5 11.1 27.5C11 27.9 11.4 27.8 11.6 28.4C11.4 28.4 11.2 28.5 11.1 28.6C11.1 28.6 11 28.7 11 28.9C11 29.2 11.2 29.4 11.5 29.4C11.8 29.4 12 29.2 12 28.9V28.8C12.1 28.8 12.2 28.8 12.4 28.9L12.8 29.1C12.8 29.1 11.4 30.3 9.10002 29.6C9.10002 29.6 8.00002 29.3 8.30002 28.3C8.30002 28.3 8.40002 28.1 8.50002 28.1C8.50002 28.2 8.60002 28.3 8.70002 28.4C8.80002 28.5 8.90002 28.5 9.00002 28.5C9.30002 28.5 9.50002 28.3 9.50002 28C9.50002 27.9 9.40002 27.7 9.40002 27.6C9.40002 27.6 9.40002 27.6 9.30002 27.5C9.10002 27.4 8.90002 27.3 8.50002 27.4C8.50002 27.4 7.50002 27.7 7.90002 28.8C7.90002 28.8 7.20002 28.6 7.00002 29C7.00002 29 6.90002 29.1 6.90002 29.3C6.90002 29.4 6.90002 29.4 7.00002 29.5C7.10002 29.6 7.20002 29.7 7.30002 29.7C7.40002 29.7 7.50002 29.6 7.60002 29.6C7.60002 29.6 7.70002 29.5 7.80002 29.6C9.30002 31.2 11.9 30.5 13.3 29.5C13.3 29.5 14.1 28.7 14.9 28.2C15.2 28.3 15.6 28.5 15.9 28.6C15.9 29.1 16 29.8 16.5 30.7C16.5 30.7 16.1 31.4 15.4 31C15.4 31 14.9 30.6 15.3 30.2C15.3 30.2 15.6 30 15.7 30.3C15.6 30.3 15.4 30.4 15.4 30.6C15.4 30.8 15.5 30.9 15.7 30.9C15.8 30.9 16 30.8 16 30.6C16 30.5 16 30.2 15.8 30C15.8 30 15.6 29.8 15.2 29.8C14.6 29.9 14.3 31.1 15.4 31.6C15.4 31.6 16.3 32 16.8 31.3C16.8 31.3 16.8 31.2 17 31.4C18 32.3 20.1 32.1 21 31.4C21 31.4 21.2 31.3 21.5 31.2C21.5 31.6 21.8 31.9 22.2 31.9C22.6 31.9 22.9 31.6 22.9 31.2C22.9 30.9 22.7 30.6 22.3 30.5C22.3 30.5 21.9 30.4 21.2 30.8C21.2 30.8 20.5 31.2 20.6 31.1C20.8 30.8 21 30.3 21.1 29.8C22 29.9 23 30 24 30C24 30.3 23.9 30.6 23.8 30.9C23.8 30.9 23.4 31 23.4 31.3C23.4 31.3 23.4 31.5 23.7 31.7C23.7 31.7 23.9 32 24 32.1C24 32.1 24 32.4 24.4 32.4C24.4 32.4 24.4 32.4 24.5 32.4C24.5 32.4 24.5 32.4 24.6 32.4C25 32.4 25 32.1 25 32.1C25.1 31.9 25.3 31.7 25.3 31.7C25.6 31.4 25.6 31.3 25.6 31.3C25.6 31.1 25.2 30.9 25.2 30.9C25.1 30.6 25 30.3 25 30C26 30 27 29.9 27.9 29.8C28 30.3 28.1 30.8 28.4 31.1C28.4 31.2 27.8 30.8 27.8 30.8C27.2 30.4 26.7 30.5 26.7 30.5C26.2 30.4 26 30.7 26 31C26 31.4 26.3 31.7 26.7 31.7C27.1 31.7 27.4 31.4 27.4 31C27.6 31.1 27.9 31.2 27.9 31.2C28.8 31.8 30.9 32.1 31.9 31.2C32.1 31 32.1 31.1 32.1 31.1C32.6 31.8 33.5 31.4 33.5 31.4C34.7 30.9 34.3 29.7 33.7 29.6C33.3 29.5 33.1 29.8 33.1 29.8C32.9 30 32.9 30.3 32.9 30.4C32.9 30.5 33 30.7 33.2 30.7C33.3 30.7 33.5 30.6 33.5 30.4C33.5 30.3 33.4 30.1 33.2 30.1C33.3 29.8 33.6 30 33.6 30C34 30.5 33.5 30.8 33.5 30.8C32.8 31.2 32.4 30.5 32.4 30.5C33 29.7 33.1 29 33 28.5C33.3 28.4 33.7 28.3 34 28.1C34.9 28.6 35.6 29.4 35.6 29.4C37 30.5 39.5 31.1 41.1 29.5C41.2 29.4 41.3 29.4 41.3 29.5C41.4 29.6 41.5 29.6 41.6 29.6C41.7 29.6 41.9 29.5 41.9 29.4C41.9 29.3 42 29.2 42 29.2C41.9 29 41.9 28.9 41.9 28.9ZM13.1 28.5C13.1 28.5 13 28.6 12.9 28.5C12.1 27.5 13.3 26.4 13.7 27.1C13.7 27.1 13.2 27.1 13.3 27.4C13.3 27.4 13.3 27.7 13.7 27.7C13.7 27.7 14.3 27.6 14.1 26.9C14.1 26.9 14 26.6 13.7 26.5C13.7 26.5 12.7 26.2 12.2 27.1C12.2 27.1 12.1 27.3 12.1 27.6C12 27.5 11.8 27.4 11.7 27.4C11.5 27.2 11.2 25.6 11.4 24.7C13 24.4 13.4 23.1 13.5 22.7C13.8 22.8 14 23.2 14 23.3C14 23.5 13.9 23.7 14.1 23.9C14.3 24.2 14.7 24.4 14.9 24.6C15 24.7 16.1 25.5 16.3 25.6C16.5 25.6 16.6 25.5 16.7 25.5C16.8 25.5 16.8 25.5 16.8 25.6C16.8 25.6 16.9 25.7 17 25.8C16.7 26 16.3 26.3 15.8 26.7C15.9 26.7 15.5 27.2 13.1 28.5ZM16.9 29.6C16.9 29.6 16.8 30 16.7 30.1C16.7 30.1 16.4 29.5 16.3 28.7C16.6 28.8 16.8 28.9 17.1 28.9C17.1 29.1 17 29.3 16.9 29.6ZM20 31C20 31 18.4 31.6 17.2 30.5C17.2 30.5 17.3 29.8 17.6 29C18.5 29.2 19.5 29.4 20.4 29.5C20.4 30.2 20.2 31 20 31ZM18.4 27.8C18.7 27.5 19.1 27.3 19.7 27.3C19.7 27.3 20.4 27.3 20.6 28.2C19.7 28.1 19 28 18.4 27.8ZM20 26.8C19.9 26.8 18.8 26.9 17.9 27.7C17.4 27.6 17 27.5 16.6 27.3C16.7 27.2 16.7 27 16.9 26.9C16.9 26.9 18.3 25.2 20.8 26.2C20.8 26.3 20.7 26.7 20 26.8ZM21.1 28.3C21.2 27.3 21.3 26.5 21.6 26.5C21.6 26.5 21.9 26.5 22 26.8C22.3 27.2 23.2 27.8 23.5 28.5C22.7 28.5 21.9 28.4 21.1 28.3ZM25.1 28.5C25.5 27.7 26.3 27.2 26.6 26.8C26.8 26.6 27 26.5 27 26.5C27.4 26.5 27.4 27.3 27.5 28.3C26.8 28.4 26 28.5 25.1 28.5ZM27.9 26.2C30.4 25.3 31.8 26.9 31.8 26.9C31.9 27 32 27.2 32.1 27.3C31.8 27.4 31.3 27.5 30.8 27.7C29.9 26.9 28.8 26.8 28.7 26.8C28 26.7 27.9 26.3 27.9 26.2ZM29.1 27.3C29.6 27.3 30 27.5 30.4 27.8C29.8 27.9 29.1 28.1 28.3 28.2C28.4 27.3 29.1 27.3 29.1 27.3ZM28.7 31C28.4 31 28.3 30.2 28.2 29.5C29.2 29.4 30.1 29.2 31 29C31.3 29.8 31.4 30.5 31.4 30.5C30.4 31.7 28.7 31 28.7 31ZM32 30.1C31.9 30 31.8 29.6 31.8 29.6C31.7 29.4 31.7 29.2 31.6 29C31.9 28.9 32.1 28.8 32.4 28.8C32.3 29.5 32 30.1 32 30.1Z" fill="#2B3701"/>
<path d="M57.5 13.2L57.4 7.99999C57.2 8.59999 57.1 8.99999 57 9.39999L56.1 13.1H54.3L53.5 9.39999C53.4 8.99999 53.3 8.59999 53.2 7.89999L53.1 13.1H52L52.2 6.89999H54.3C54.3 6.89999 55 9.99999 55.3 12C55.7 9.99999 56.5 6.89999 56.5 6.89999H58.5L58.7 13.1H57.5V13.2Z" fill="#2B3701"/>
<path d="M60.3 13.2V9.49999L59.8 9.39999V8.59999H61.5V13.1H60.3V13.2ZM60.2 6.79999H61.4V7.89999H60.2V6.79999Z" fill="#2B3701"/>
<path d="M65.3 13.2V10.5C65.3 9.8 65 9.5 64.5 9.5C64.2 9.5 63.9 9.6 63.7 9.8V13.2H62.5V8.6H63.3L63.5 9.1C63.8 8.8 64.3 8.5 64.9 8.5C66 8.5 66.5 9.2 66.5 10.3V13.1H65.3V13.2Z" fill="#2B3701"/>
<path d="M67.9 13.2V9.49999L67.4 9.39999V8.59999H69.1V13.1H67.9V13.2ZM67.9 6.79999H69.1V7.89999H67.9V6.79999Z" fill="#2B3701"/>
<path d="M71.3 9.80001C71.3 10.5 73.3 10.3 73.3 11.8C73.3 12.6 72.7 13.3 71.5 13.3C71 13.3 70.4 13.1 70.1 13L70.3 12.2C70.5 12.3 71 12.5 71.4 12.5C71.8 12.5 72.1 12.3 72.1 12C72.1 11.2 70.2 11.5 70.2 9.90001C70.2 9.20001 70.7 8.60001 71.9 8.60001C72.4 8.60001 72.9 8.70001 73.2 8.80001L73 9.60001C72.7 9.50001 72.3 9.40001 71.9 9.40001C71.5 9.40001 71.3 9.60001 71.3 9.80001Z" fill="#2B3701"/>
<path d="M75.8 13.2C75 13.2 74.5 12.8 74.5 11.7V9.5H73.8V8.6H74.5V7.9L75.7 7.5V8.7H76.9V9.6H75.7V11.8C75.7 12.1 75.9 12.3 76.2 12.3C76.4 12.3 76.7 12.2 76.9 12.1L77.1 13C76.8 13.1 76.3 13.2 75.8 13.2Z" fill="#2B3701"/>
<path d="M78.6 11.2C78.6 11.9 79 12.3 79.8 12.3C80.3 12.3 80.7 12.1 81.1 11.9L81.3 12.7C80.9 12.9 80.3 13.1 79.6 13.1C78.2 13.1 77.4 12.2 77.4 10.7C77.4 9.29999 78.1 8.39999 79.5 8.39999C80.9 8.39999 81.4 9.39999 81.4 10.5V11H78.6V11.2ZM79.5 9.39999C78.9 9.39999 78.7 9.89999 78.7 10.5H80.3C80.3 9.89999 80.1 9.39999 79.5 9.39999Z" fill="#2B3701"/>
<path d="M84.9 9.6C84.8 9.6 84.5 9.5 84.3 9.5C84 9.5 83.7 9.6 83.5 9.8V13.1H82.3V8.6H83.1L83.2 9.2C83.3 8.9 83.7 8.5 84.3 8.5C84.5 8.5 84.7 8.5 84.8 8.6L84.9 9.6Z" fill="#2B3701"/>
<path d="M86 13.2V9.49999L85.5 9.39999V8.59999H87.2V13.1H86V13.2ZM85.9 6.79999H87.1V7.89999H85.9V6.79999Z" fill="#2B3701"/>
<path d="M92.3 10.9C92.3 12.4 91.5 13.3 90.2 13.3C88.8 13.3 88.1 12.5 88.1 10.9C88.1 9.60001 88.8 8.60001 90.2 8.60001C91.6 8.60001 92.3 9.60001 92.3 10.9ZM91.1 10.9C91.1 9.80001 90.8 9.40001 90.2 9.40001C89.6 9.40001 89.3 9.80001 89.3 10.9C89.3 11.9 89.6 12.4 90.2 12.4C90.8 12.4 91.1 12 91.1 10.9Z" fill="#2B3701"/>
<path d="M98.2 8.99999C98.1 8.69999 98.1 8.49999 98.1 8.19999V6.79999H99.3V13.2H98.3L98.2 12.7C98 13 97.6 13.3 97 13.3C96 13.3 95.2 12.6 95.2 11C95.2 9.49999 96 8.69999 97.1 8.69999C97.5 8.59999 97.9 8.69999 98.2 8.99999ZM98.1 9.69999C97.9 9.59999 97.6 9.49999 97.3 9.49999C96.7 9.49999 96.4 9.89999 96.4 10.9C96.4 12 96.7 12.4 97.3 12.4C97.6 12.4 97.9 12.3 98.1 12V9.69999Z" fill="#2B3701"/>
<path d="M101.4 11.2C101.4 11.9 101.8 12.3 102.6 12.3C103.1 12.3 103.5 12.1 103.9 11.9L104.1 12.7C103.7 12.9 103.1 13.1 102.4 13.1C101 13.1 100.2 12.2 100.2 10.7C100.2 9.29999 100.9 8.39999 102.3 8.39999C103.7 8.39999 104.2 9.39999 104.2 10.5V11H101.4V11.2ZM102.2 9.39999C101.6 9.39999 101.4 9.89999 101.4 10.5H103C103 9.89999 102.9 9.39999 102.2 9.39999Z" fill="#2B3701"/>
<path d="M52 21.3V16.1H53.2V21.2C53.2 21.6 53.4 21.6 53.9 21.6V22.4C53.9 22.4 53.6 22.5 53.2 22.5C52.4 22.6 52 22.1 52 21.3Z" fill="#2B3701"/>
<path d="M57.5 22.5L57.3 22C57.1 22.3 56.6 22.6 56 22.6C55.1 22.6 54.5 22 54.5 21.2C54.5 20.4 55.1 19.9 56.2 19.9H57.1V19.7C57.1 19.1 56.8 18.9 56.3 18.9C55.8 18.9 55.3 19 54.9 19.2L54.6 18.3C55.1 18.1 55.7 17.9 56.4 17.9C57.7 17.9 58.2 18.5 58.2 19.6V22.5H57.5ZM57.2 20.6H56.5C56 20.6 55.8 20.8 55.8 21.2C55.8 21.6 56 21.9 56.5 21.9C56.8 21.9 57.1 21.8 57.3 21.6V20.6H57.2Z" fill="#2B3701"/>
<path d="M60.4 19.2C60.4 19.9 62.4 19.7 62.4 21.2C62.4 22 61.8 22.7 60.6 22.7C60.1 22.7 59.6 22.5 59.2 22.4L59.4 21.6C59.6 21.7 60.1 21.9 60.5 21.9C60.9 21.9 61.2 21.7 61.2 21.4C61.2 20.6 59.3 20.9 59.3 19.3C59.3 18.6 59.8 18 61 18C61.5 18 62 18.1 62.3 18.2L62.1 19C61.8 18.9 61.4 18.8 61 18.8C60.6 18.8 60.4 19 60.4 19.2Z" fill="#2B3701"/>
<path d="M67.9 22.6C66.2 22.6 65.2 21.4 65.2 19.4C65.2 17.5 66.1 16.2 67.9 16.2C68.7 16.2 69.5 16.4 70 16.7L69.5 17.7C69.2 17.5 68.6 17.3 68 17.3C67 17.3 66.5 18 66.5 19.4C66.5 20.8 67 21.6 68 21.6C68.6 21.6 69.2 21.3 69.6 21L70 22C69.4 22.4 68.7 22.6 67.9 22.6Z" fill="#2B3701"/>
<path d="M73.9 22.5L73.7 22C73.5 22.3 73 22.6 72.3 22.6C71.2 22.6 70.7 22 70.7 20.7V18H71.9V20.7C71.9 21.4 72.1 21.6 72.7 21.6C73 21.6 73.3 21.5 73.5 21.3V18H74.7V22.5H73.9Z" fill="#2B3701"/>
<path d="M75.7 21.3V16.1H76.9V21.2C76.9 21.6 77.1 21.6 77.6 21.6V22.4C77.6 22.4 77.3 22.5 76.9 22.5C76 22.6 75.7 22.1 75.7 21.3Z" fill="#2B3701"/>
<path d="M80 22.6C79.2 22.6 78.7 22.2 78.7 21.1V18.9H78V18H78.7V17.2L79.9 16.8V18H81.1V18.9H79.9V21.1C79.9 21.4 80.1 21.6 80.4 21.6C80.6 21.6 80.9 21.5 81.1 21.4L81.3 22.3C81 22.5 80.5 22.6 80 22.6Z" fill="#2B3701"/>
<path d="M85.2 22.5L85 22C84.8 22.3 84.3 22.6 83.6 22.6C82.5 22.6 82 22 82 20.7V18H83.2V20.7C83.2 21.4 83.4 21.6 84 21.6C84.3 21.6 84.6 21.5 84.8 21.3V18H86V22.5H85.2Z" fill="#2B3701"/>
<path d="M89.5 19C89.4 19 89.2 19 89 19C88.7 19 88.4 19.1 88.2 19.3V22.6H87V18H87.8L87.9 18.6C88 18.3 88.4 17.9 89 17.9C89.2 17.9 89.4 17.9 89.5 18V19Z" fill="#2B3701"/>
<path d="M92.9 22.5L92.8 22C92.6 22.3 92.1 22.6 91.5 22.6C90.6 22.6 90 22 90 21.2C90 20.4 90.6 19.9 91.7 19.9H92.6V19.7C92.6 19.1 92.3 18.9 91.8 18.9C91.3 18.9 90.8 19 90.4 19.2L90.1 18.3C90.6 18.1 91.2 17.9 91.9 17.9C93.2 17.9 93.7 18.5 93.7 19.6V22.5H92.9ZM92.6 20.6H91.9C91.4 20.6 91.2 20.8 91.2 21.2C91.2 21.6 91.4 21.9 91.9 21.9C92.2 21.9 92.5 21.8 92.7 21.6V20.6H92.6Z" fill="#2B3701"/>
<path d="M95.8 19.2C95.8 19.9 97.8 19.7 97.8 21.2C97.8 22 97.2 22.7 96 22.7C95.5 22.7 95 22.5 94.6 22.4L94.8 21.6C95 21.7 95.5 21.9 95.9 21.9C96.3 21.9 96.6 21.7 96.6 21.4C96.6 20.6 94.7 20.9 94.7 19.3C94.7 18.6 95.2 18 96.4 18C96.9 18 97.4 18.1 97.7 18.2L97.6 19C97.3 18.9 96.9 18.8 96.5 18.8C96 18.8 95.8 19 95.8 19.2Z" fill="#2B3701"/>
<path d="M98.6 21.2H99.8V22.6C99.8 23.4 99.4 23.7 98.6 23.8V23.2C98.8 23.2 98.9 23 98.9 22.6L98.6 22.5V21.2Z" fill="#2B3701"/>
<path d="M52 30.7V25.5H53.2V30.6C53.2 31 53.4 31 53.9 31V31.8C53.9 31.8 53.6 31.9 53.2 31.9C52.4 32 52 31.5 52 30.7Z" fill="#2B3701"/>
<path d="M57.5 31.9L57.3 31.4C57.1 31.7 56.7 32 56 32C55.1 32 54.5 31.4 54.5 30.6C54.5 29.8 55.1 29.3 56.2 29.3H57.1V29C57.1 28.4 56.8 28.2 56.3 28.2C55.8 28.2 55.3 28.3 54.9 28.5L54.6 27.6C55.1 27.4 55.7 27.2 56.4 27.2C57.7 27.2 58.2 27.8 58.2 28.9V31.8H57.5V31.9ZM57.2 30H56.5C56 30 55.8 30.2 55.8 30.6C55.8 31 56 31.3 56.5 31.3C56.8 31.3 57.1 31.2 57.3 31V30H57.2Z" fill="#2B3701"/>
<path d="M60.4 28.6C60.4 29.3 62.4 29.1 62.4 30.6C62.4 31.4 61.8 32.1 60.6 32.1C60.1 32.1 59.6 31.9 59.2 31.8L59.4 31C59.6 31.1 60.1 31.3 60.5 31.3C60.9 31.3 61.2 31.1 61.2 30.8C61.2 30 59.3 30.3 59.3 28.7C59.3 28 59.8 27.4 61 27.4C61.5 27.4 62 27.5 62.3 27.6L62.1 28.5C61.8 28.4 61.4 28.3 61 28.3C60.6 28.2 60.4 28.3 60.4 28.6Z" fill="#2B3701"/>
<path d="M66.1 31.9H64.9L66.6 25.7H68.6L70.2 31.9H68.8L68.5 30.5H66.4L66.1 31.9ZM67.3 26.8L66.6 29.6H68.3L67.7 26.8H67.3Z" fill="#2B3701"/>
<path d="M73.5 28.4C73.4 28.4 73.1 28.3 72.9 28.3C72.6 28.3 72.3 28.4 72.1 28.6V31.9H70.9V27.4H71.7L71.8 28C71.9 27.7 72.3 27.3 72.9 27.3C73.1 27.3 73.3 27.3 73.4 27.4L73.5 28.4Z" fill="#2B3701"/>
<path d="M75.9 32C75.1 32 74.6 31.6 74.6 30.5V28.3H73.9V27.4H74.6V26.6L75.8 26.2V27.4H77V28.3H75.8V30.5C75.8 30.8 76 31 76.3 31C76.5 31 76.8 30.9 77 30.8L77.2 31.7C76.8 31.9 76.3 32 75.9 32Z" fill="#2B3701"/>
<path d="M78.6 30C78.6 30.7 79 31.1 79.8 31.1C80.3 31.1 80.7 30.9 81.1 30.7L81.3 31.5C80.9 31.7 80.3 31.9 79.6 31.9C78.2 31.9 77.4 31 77.4 29.5C77.4 28.1 78.1 27.2 79.5 27.2C80.9 27.2 81.4 28.2 81.4 29.3V30H78.6ZM79.5 28.2C78.9 28.2 78.7 28.7 78.7 29.3H80.3C80.3 28.7 80.1 28.2 79.5 28.2Z" fill="#2B3701"/>
<path d="M83.4 28.6C83.4 29.3 85.4 29.1 85.4 30.6C85.4 31.4 84.8 32.1 83.6 32.1C83.1 32.1 82.6 31.9 82.2 31.8L82.4 31C82.6 31.1 83.1 31.3 83.5 31.3C83.9 31.3 84.2 31.1 84.2 30.8C84.2 30 82.3 30.3 82.3 28.7C82.3 28 82.8 27.4 84 27.4C84.5 27.4 85 27.5 85.3 27.6L85.1 28.5C84.8 28.4 84.4 28.3 84 28.3C83.6 28.2 83.4 28.3 83.4 28.6Z" fill="#2B3701"/>
<path d="M90.1 31.8L89.2 32L87.9 27.4H89.3L90.3 31.2L91.3 27.4H92.5L91 32C90.6 33.3 90 33.8 89 33.8C88.5 33.8 87.9 33.5 87.7 33.3L88.1 32.5H88.2C88.2 32.5 88.6 32.8 89 32.8C89.5 32.8 89.8 32.5 90 31.9L90.1 31.8Z" fill="#2B3701"/>
<path d="M96.1 30C96.1 30.7 96.5 31.1 97.3 31.1C97.8 31.1 98.2 30.9 98.6 30.7L98.8 31.5C98.4 31.7 97.8 31.9 97.1 31.9C95.7 31.9 94.9 31 94.9 29.5C94.9 28.1 95.6 27.2 97 27.2C98.4 27.2 98.9 28.2 98.9 29.3V30H96.1ZM96.9 28.2C96.3 28.2 96.1 28.7 96.1 29.3H97.7C97.7 28.7 97.5 28.2 96.9 28.2Z" fill="#2B3701"/>
<path d="M99.8 30.7V25.5H101V30.6C101 31 101.2 31 101.7 31V31.8C101.7 31.8 101.4 31.9 101 31.9C100.1 32 99.8 31.5 99.8 30.7Z" fill="#2B3701"/>
<path d="M53.9 39.1H53.2V41.3H52V35.1H53.9C55.2 35.1 56.3 35.7 56.3 37C56.3 38.2 55.4 39.1 53.9 39.1ZM53.9 36.1H53.2V38.2H53.9C54.6 38.2 55 37.8 55 37.1C55 36.4 54.6 36.1 53.9 36.1Z" fill="#2B3701"/>
<path d="M59.6 41.3L59.4 40.8C59.2 41.1 58.7 41.4 58.1 41.4C57.2 41.4 56.6 40.8 56.6 40C56.6 39.2 57.2 38.7 58.3 38.7H59.2V38.5C59.2 37.9 58.9 37.7 58.4 37.7C57.9 37.7 57.4 37.8 57 38L56.7 37.1C57.2 36.9 57.8 36.7 58.5 36.7C59.8 36.7 60.3 37.3 60.3 38.4V41.3H59.6ZM59.2 39.3H58.5C58 39.3 57.8 39.5 57.8 39.9C57.8 40.3 58 40.6 58.5 40.6C58.8 40.6 59.1 40.5 59.3 40.3V39.3H59.2Z" fill="#2B3701"/>
<path d="M63.1 41.4C62.3 41.4 61.8 41 61.8 39.9V37.7H61.1V36.8H61.8V36L63 35.6V36.8H64.2V37.7H63V39.9C63 40.2 63.2 40.4 63.5 40.4C63.7 40.4 64 40.3 64.2 40.2L64.4 41.1C64.1 41.3 63.6 41.4 63.1 41.4Z" fill="#2B3701"/>
<path d="M67.7 37.8C67.6 37.8 67.3 37.7 67.1 37.7C66.8 37.7 66.5 37.8 66.3 38V41.3H65.1V36.8H65.9L66 37.4C66.1 37.1 66.5 36.7 67.1 36.7C67.3 36.7 67.5 36.7 67.6 36.8L67.7 37.8Z" fill="#2B3701"/>
<path d="M68.7 41.3V37.7L68.2 37.6V36.8H69.9V41.3H68.7ZM68.7 35H69.9V36.1H68.7V35Z" fill="#2B3701"/>
<path d="M75 38.5V41.3H73.8V38.6C73.8 37.9 73.6 37.6 73 37.6C72.7 37.6 72.4 37.7 72.2 37.9V41.3H71V36.8H71.8L72 37.3C72.3 37 72.7 36.7 73.3 36.7C74 36.7 74.5 36.9 74.7 37.3C75 37 75.4 36.7 76.1 36.7C77.4 36.7 77.8 37.4 77.8 38.5V41.3H76.6V38.6C76.6 37.9 76.3 37.6 75.8 37.6C75.5 37.6 75.2 37.7 75 37.9C75 38.1 75 38.3 75 38.5Z" fill="#2B3701"/>
<path d="M82.8 39C82.8 40.5 82 41.4 80.7 41.4C79.3 41.4 78.6 40.6 78.6 39C78.6 37.7 79.3 36.7 80.7 36.7C82.1 36.7 82.8 37.7 82.8 39ZM81.6 39C81.6 37.9 81.3 37.5 80.7 37.5C80.1 37.5 79.8 37.9 79.8 39C79.8 40 80.1 40.5 80.7 40.5C81.3 40.5 81.6 40.1 81.6 39Z" fill="#2B3701"/>
<path d="M86.5 41.3V38.6C86.5 37.9 86.2 37.6 85.7 37.6C85.4 37.6 85.1 37.7 84.9 37.9V41.3H83.7V36.8H84.5L84.7 37.3C85 37 85.5 36.7 86.1 36.7C87.2 36.7 87.7 37.4 87.7 38.5V41.3H86.5Z" fill="#2B3701"/>
<path d="M89.1 41.3V37.7L88.6 37.6V36.8H90.3V41.3H89.1ZM89.1 35H90.3V36.1H89.1V35Z" fill="#2B3701"/>
<path d="M95.5 39C95.5 40.5 94.7 41.4 93.4 41.4C92 41.4 91.3 40.6 91.3 39C91.3 37.7 92 36.7 93.4 36.7C94.7 36.7 95.5 37.7 95.5 39ZM94.2 39C94.2 37.9 93.9 37.5 93.3 37.5C92.7 37.5 92.4 37.9 92.4 39C92.4 40 92.7 40.5 93.3 40.5C93.9 40.5 94.2 40.1 94.2 39Z" fill="#2B3701"/>
</svg>
